# xmcd
#
# Track frame offsets:
#	150
#	14099
#	28359
#	40182
#	52309
#	66173
#	78829
#	92732
#	104771
#	118485
#	132372
#	145286
#	157854
#	168619
#	180618
#	196330
#	206877
#	217236
#	231648
#	248191
#
# Disc length: 3445 seconds
#
# Revision: 2
# Processed by: cddbd v1.5.2PL0 Copyright (c) Steve Scherf et al.
# Submitted via: audiograbber 1.83.01
#
DISCID=420d7314
DTITLE=Various Artist - BB King and the Kings of Electric Blues Disc II
DYEAR=0
DGENRE=Blues
TTITLE0=Howlin' Wolf - Smokestack Lightnin'
TTITLE1=Hooker, John Lee - Boogie Chillin'
TTITLE2=Little Walter - My Babe
TTITLE3=Reed, Jimmy - Honest I Do
TTITLE4=Slim Harpo - I'm a King Bee
TTITLE5=Muddy Waters - Hoochie Coochie Man
TTITLE6=Snooks Eaglin' - Mean Old Frisco
TTITLE7=Guy, Buddy - Try to Quit You Baby
TTITLE8=Cotton, James - Cotton Crop Blues
TTITLE9=Wells, Junior - Hoodoo Man
TTITLE10=Rogers, Jimmy - That's  All Right
TTITLE11=James, Elmore - Dust My Broom
TTITLE12=King, Earl - A Mother's Love
TTITLE13=Watson, Johnny "Guitar" - Space Guitar
TTITLE14=Williamson, Sonny Boy - Nine Below Zero
TTITLE15=Horton, Walter - Need My Baby
TTITLE16=Arnold, Billy Boy - I Ain't Got You
TTITLE17=Fulson, Lowell - Reconsiderer Baby
TTITLE18=Rush, Otis - I Can't Quit You Baby
TTITLE19=Emerson, Billy - If Lovin' Is Believing
EXTD=
EXTT0=
EXTT1=
EXTT2=
EXTT3=
EXTT4=
EXTT5=
EXTT6=
EXTT7=
EXTT8=
EXTT9=
EXTT10=
EXTT11=
EXTT12=
EXTT13=
EXTT14=
EXTT15=
EXTT16=
EXTT17=
EXTT18=
EXTT19=
PLAYORDER=
